<svg width="512" height="512" viewBox="0 0 512 512" fill="none" xmlns="http://www.w3.org/2000/svg">
<g clip-path="url(#clip0_2_111)">
<rect width="512" height="512" rx="100" fill="#FDC31C"/>
<path d="M128.58 194.297C147.266 193.471 165.988 194.449 184.486 197.22C213.082 201.604 236.612 208.233 266.137 206.305C287.377 204.917 305.535 200.411 326.282 197.257C348.72 193.989 371.447 193.177 394.062 194.836C404.34 195.608 415.965 197.095 426.17 198.555C434.127 199.693 443.187 200.727 450.677 203.21C451.722 203.556 452.747 206.252 452.9 207.287C453.595 213.165 455.592 228.478 453.612 233.529C452.282 236.923 442.547 238.371 441.587 244.432C440.702 250.173 441.225 256.153 440.92 261.961C439.097 296.742 425.97 330.53 388.027 337.825C360.405 343.135 335.45 339.512 311.74 323.632C300.347 315.76 290.877 305.418 284.04 293.376C275.122 277.796 271.242 259.377 261.277 244.304C259.957 242.308 257.847 240.829 255.832 239.638C249.367 242.379 246.186 250.64 243.305 256.612C238.822 265.906 235.739 275.959 231.463 285.328C228.684 291.308 225.33 297.002 221.448 302.331C206.502 322.747 183.912 336.065 159.01 339.185C138.496 341.53 115.269 339.517 98.1736 326.897C80.0309 313.502 73.3481 291.132 71.1086 269.649C70.3064 261.952 70.7614 254.004 69.8909 246.271C69.0149 238.489 63.2501 238.311 57.6731 234.199C57.4319 233.564 56.9589 231.917 57.0029 231.033C57.3526 224.002 56.0496 209.29 59.9014 203.82C61.2874 201.851 69.9501 201.025 72.3629 200.607C90.9424 197.267 109.722 195.159 128.58 194.297Z" fill="#302F30"/>
<path d="M362.945 211.55C372.535 211.203 385.52 212.382 395.02 213.831C404.525 215.282 418.747 217.092 421.365 228.284C424.812 243.034 422.99 260.184 420.517 275.064C414.15 311.13 384.627 324.312 350.93 317.965C317.06 312.385 302.95 285.607 292.81 255.846C288.687 243.754 284.132 234.895 297.182 227.052C316.565 215.402 341.222 212.458 362.945 211.55Z" fill="#FDC31C"/>
<path d="M337.92 220.772C337.99 220.759 338.057 220.746 338.127 220.733C370.107 218.922 380.682 261.896 363.27 283.422C358.037 289.888 351.46 293.821 344.045 294.678C305.235 297.492 297.377 238.12 329.302 223.009C332.185 221.645 334.827 221.235 337.92 220.772Z" fill="#302F30"/>
<path d="M143.013 211.554C164.716 210.948 191.61 215.162 210.994 225.293C225.475 232.862 224.118 238.858 219.691 251.925C209.899 280.83 198.081 308.579 165.793 316.897C161.203 317.93 156.256 318.887 151.561 319.147C136.109 320.007 119.116 317.695 107.204 306.935C96.0916 296.896 91.0579 281.31 89.2996 266.823C88.6839 261.748 88.5401 256.513 88.2966 251.405C87.8884 242.839 87.3526 228.369 93.4624 221.766C101.407 213.18 131.306 212.085 143.013 211.554Z" fill="#FDC31C"/>
<path d="M169.716 220.537C177.138 220.175 183.596 223.132 189.184 227.844C211.33 246.522 203.617 293.301 171.545 294.828C164.675 295.106 158.614 292.972 153.204 288.574C132.918 272.082 135.071 235.066 159.09 223.055C162.304 221.448 166.145 220.883 169.716 220.537Z" fill="#302F30"/>
<path d="M298.197 357.412C299.947 356.75 309.152 355.66 311.732 355.222C325.132 352.975 339.122 349.205 352.76 351.302C361.692 352.677 368.075 361.657 365.81 370.332C363.217 380.247 349.095 390.692 340.877 395.97C315.807 412.075 285.43 419.767 255.817 420.385C246.274 420.525 229.83 418.462 220.55 416.375C198.192 411.247 175.914 401.995 158.292 387.097C151.066 380.667 143.034 373.5 145.727 362.83C148.293 352.66 157.394 350.625 166.627 350.68C177.429 350.745 187.581 353.095 198.148 354.962C203.134 355.842 208.051 356.192 213.018 357.387C233.093 360.132 251.75 361.27 271.98 360.152C281.015 359.652 289.275 358.467 298.197 357.412Z" fill="#ED6C30"/>
<path d="M213.018 357.387C233.093 360.132 251.75 361.27 271.98 360.152C281.015 359.652 289.275 358.467 298.197 357.412L298.252 370.51C298.262 373.44 298.415 377.842 297.855 380.582C297.487 382.307 296.785 383.945 295.79 385.402C291.01 392.415 285.182 391.317 278.137 392.73C267.057 394.952 257.91 393.492 255.722 380.337C255.015 383.99 254.135 386.87 251.462 389.522C246.082 394.865 240.125 393.877 233.471 392.747C227.236 391.687 221.838 392.407 216.998 387.43C212.195 382.487 212.971 375.32 212.983 369.055L213.018 357.387Z" fill="#FEFEFE"/>
</g>
<defs>
<clipPath id="clip0_2_111">
<rect width="512" height="512" fill="white"/>
</clipPath>
</defs>
</svg>
